<?xml version="1.0" encoding="utf-8"?>
<svg xmlns="http://www.w3.org/2000/svg" viewBox="0 0 512 512" width="512" height="512">
  <defs>
    <linearGradient id="bgGrad" x1="0%" y1="0%" x2="100%" y2="100%">
      <stop offset="0%" stop-color="#ff7033" />
      <stop offset="50%" stop-color="#ea580c" />
      <stop offset="100%" stop-color="#9a3412" />
    </linearGradient>
    <linearGradient id="shieldGrad" x1="0%" y1="0%" x2="100%" y2="100%">
      <stop offset="0%" stop-color="#fffdf7" />
      <stop offset="100%" stop-color="#fef3c7" />
    </linearGradient>
  </defs>
  <rect width="512" height="512" rx="128" fill="url(#bgGrad)" />
  <rect x="24" y="24" width="464" height="464" rx="104" fill="none" stroke="#fed7aa" stroke-width="8" opacity="0.6" />
  <path d="M256 96 C336 96, 396 112, 396 112 C396 260, 340 376, 256 420 C172 376, 116 260, 116 112 C116 112, 176 96, 256 96 Z"
        fill="url(#shieldGrad)" stroke="#78350f" stroke-width="14" stroke-linejoin="round" />
  <path d="M256 160 C270 210, 310 240, 310 280 C310 320, 280 348, 256 352 C232 348, 202 320, 202 280 C202 240, 242 210, 256 160 Z"
        fill="#ff7033" stroke="#9a3412" stroke-width="8" />
  <circle cx="256" cy="290" r="22" fill="#fde047" />
</svg>
